<svg id="Layer_1" data-name="Layer 1" xmlns="http://www.w3.org/2000/svg" viewBox="0 0 118 118"><defs><style>.cls-1{fill:#fffaa3;}</style></defs><title>beer</title><g id="beer"><path class="cls-1" d="M21.12,30a8.31,8.31,0,0,1,8.3-8.3,7.9,7.9,0,0,1,2.17.33,2.07,2.07,0,0,0,2.53-1.38,10.32,10.32,0,0,1,17.16-4.23,2,2,0,0,0,1.55.6,2.07,2.07,0,0,0,1.49-.72,8.22,8.22,0,0,1,14.2,3.14,2.08,2.08,0,0,0,1.63,1.47,2,2,0,0,0,2-.81,6.16,6.16,0,0,1,5-2.56,6.23,6.23,0,1,1,0,12.46H56.64a2.05,2.05,0,0,0-3.82-.9,10.24,10.24,0,0,1-13.39,4,2.09,2.09,0,0,0-2.74.88A8.27,8.27,0,0,1,21.12,30ZM95.88,73.56"/><path class="cls-1" d="M76.3,104.71H28.23a3,3,0,0,1-3-3,3.05,3.05,0,0,1,.31-1.33,36.4,36.4,0,0,0,3.84-16.26V42.41a12.4,12.4,0,0,0,9.89-4.95A14.35,14.35,0,0,0,54,34.11H75.11V84.16A36.54,36.54,0,0,0,79,100.42a2.92,2.92,0,0,1,.31,1.33,3,3,0,0,1-3,3ZM95.88,73.56A10.4,10.4,0,0,1,85.49,84H79.26V79.79h6.23a6.23,6.23,0,0,0,6.23-6.23V52.8a6.23,6.23,0,0,0-6.23-6.23H79.26V42.41h6.23A10.4,10.4,0,0,1,95.88,52.8Zm0,0"/><path d="M85.49,38.26H79.26V33.9a10.38,10.38,0,0,0-2.07-20.56,10.19,10.19,0,0,0-6,1.91A12.46,12.46,0,0,0,60.57,9.19a12.33,12.33,0,0,0-7.91,2.89,14.48,14.48,0,0,0-21.82,5.51A12.31,12.31,0,0,0,17,30a12.44,12.44,0,0,0,8.3,11.7V84.16a32.34,32.34,0,0,1-3.4,14.41,7.12,7.12,0,0,0,6.36,10.3H76.3a7.12,7.12,0,0,0,6.37-10.3A32.28,32.28,0,0,1,79.52,88.1h6A14.55,14.55,0,0,0,100,73.56V52.8A14.55,14.55,0,0,0,85.49,38.26ZM21.12,30a8.31,8.31,0,0,1,8.3-8.3,7.9,7.9,0,0,1,2.17.33,2.07,2.07,0,0,0,2.53-1.38,10.32,10.32,0,0,1,17.16-4.23,2,2,0,0,0,1.55.6,2.07,2.07,0,0,0,1.49-.72,8.22,8.22,0,0,1,14.2,3.14,2.08,2.08,0,0,0,1.63,1.47,2,2,0,0,0,2-.81,6.16,6.16,0,0,1,5-2.56,6.23,6.23,0,1,1,0,12.46H56.64a2.05,2.05,0,0,0-3.82-.9,10.24,10.24,0,0,1-13.39,4,2.09,2.09,0,0,0-2.74.88A8.27,8.27,0,0,1,21.12,30ZM79.26,50.72h6.23a2.08,2.08,0,0,1,2.08,2.08V73.56a2.08,2.08,0,0,1-2.08,2.08H79.26Zm-3,54H28.23a3,3,0,0,1-3-3,3.05,3.05,0,0,1,.31-1.33,36.4,36.4,0,0,0,3.84-16.26V42.41a12.4,12.4,0,0,0,9.89-4.95A14.35,14.35,0,0,0,54,34.11H75.11V84.16A36.54,36.54,0,0,0,79,100.42a2.92,2.92,0,0,1,.31,1.33,3,3,0,0,1-3,3ZM95.88,73.56A10.4,10.4,0,0,1,85.49,84H79.26V79.79h6.23a6.23,6.23,0,0,0,6.23-6.23V52.8a6.23,6.23,0,0,0-6.23-6.23H79.26V42.41h6.23A10.4,10.4,0,0,1,95.88,52.8Zm0,0"/><path d="M39.81,46.57a2.08,2.08,0,0,0-2.08,2.07V90.18a2.08,2.08,0,0,0,4.16,0V48.64a2.08,2.08,0,0,0-2.08-2.07Zm0,0"/><path d="M52.27,46.57a2.08,2.08,0,0,0-2.08,2.07V90.18a2.08,2.08,0,0,0,4.16,0V48.64a2.08,2.08,0,0,0-2.08-2.07Zm0,0"/><path d="M64.73,46.57a2.08,2.08,0,0,0-2.08,2.07V90.18a2.08,2.08,0,0,0,4.15,0V48.64a2.07,2.07,0,0,0-2.07-2.07Zm0,0"/></g></svg>