<svg id="Layer_1" data-name="Layer 1" xmlns="http://www.w3.org/2000/svg" viewBox="0 0 118 118"><defs><style>.cls-1{fill:#fffaa3;}.cls-2{fill:#50e9b6;}</style></defs><title>book</title><g id="book"><path class="cls-1" d="M114,22.49c-17.85-7.71-36.51-7.79-55.46-.27-19-7.52-37.61-7.44-55.46.27A1.76,1.76,0,0,0,2,24.12V99.64a1.74,1.74,0,0,0,.81,1.49,1.82,1.82,0,0,0,1,.28,1.76,1.76,0,0,0,.74-.16c20-9.27,37.41-9.29,53.12-.08h0s0,0,0,0l.2.08a1.45,1.45,0,0,0,.22.09l.32,0,.13,0a2.2,2.2,0,0,0,.36,0l.1,0a1.48,1.48,0,0,0,.29-.12l.14,0h0C75.1,92,92.48,92,112.51,101.25a1.76,1.76,0,0,0,.74.16,1.82,1.82,0,0,0,1-.28,1.75,1.75,0,0,0,.82-1.49V24.12A1.77,1.77,0,0,0,114,22.49Zm-2.47,74.43"/><path d="M114,22.49c-17.85-7.71-36.51-7.79-55.46-.27-19-7.52-37.61-7.44-55.46.27A1.76,1.76,0,0,0,2,24.12V99.64a1.74,1.74,0,0,0,.81,1.49,1.82,1.82,0,0,0,1,.28,1.76,1.76,0,0,0,.74-.16c20-9.27,37.41-9.29,53.12-.08h0s0,0,0,0l.2.08a1.45,1.45,0,0,0,.22.09l.32,0,.13,0a2.2,2.2,0,0,0,.36,0l.1,0a1.48,1.48,0,0,0,.29-.12l.14,0h0C75.1,92,92.48,92,112.51,101.25a1.76,1.76,0,0,0,.74.16,1.82,1.82,0,0,0,1-.28,1.75,1.75,0,0,0,.82-1.49V24.12A1.77,1.77,0,0,0,114,22.49ZM5.5,96.92V25.29c16.49-6.82,33.72-6.8,51.22,0V96.65c-15.24-7.87-32.44-7.77-51.22.27Zm106,0q-14.25-6.12-27.23-6.1a51.58,51.58,0,0,0-24,5.83V25.32c17.51-6.83,34.72-6.84,51.22,0Zm0,0"/><path d="M46.66,38.12c-10.5-3.37-20.22-3.37-29.7,0a1.76,1.76,0,0,0,.59,3.42,1.84,1.84,0,0,0,.6-.1c8.72-3.11,17.69-3.11,27.43,0a1.77,1.77,0,0,0,1.08-3.37Zm0,0"/><path d="M46.66,56.11c-10.5-3.37-20.22-3.37-29.7,0a1.77,1.77,0,0,0,.59,3.43,2.15,2.15,0,0,0,.6-.1c8.72-3.12,17.69-3.12,27.43,0a1.76,1.76,0,0,0,1.08-3.36Zm0,0"/><path d="M100.14,60.88c-10.51-3.39-20.22-3.38-29.7,0A1.77,1.77,0,0,0,71,64.32a2.15,2.15,0,0,0,.6-.1c8.72-3.13,17.69-3.12,27.43,0a1.76,1.76,0,1,0,1.08-3.35Zm0,0"/><path d="M46.66,74.63c-10.5-3.38-20.22-3.37-29.7,0a1.76,1.76,0,0,0-1.07,2.26,1.78,1.78,0,0,0,1.66,1.18,1.86,1.86,0,0,0,.6-.11c8.72-3.12,17.69-3.12,27.43,0a1.76,1.76,0,0,0,1.08-3.36Zm0,0"/><path d="M100.14,77c-10.51-3.38-20.22-3.37-29.7,0a1.74,1.74,0,0,0-1.07,2.25A1.78,1.78,0,0,0,71,80.46a2.15,2.15,0,0,0,.6-.1c8.72-3.13,17.69-3.12,27.43,0A1.76,1.76,0,0,0,100.14,77Zm0,0"/><path class="cls-2" d="M69.23,32.21a1.74,1.74,0,0,0-1.06,1.62V49.34a1.75,1.75,0,0,0,2.54,1.58c8.31-4.08,18-4.05,29.58.08a2,2,0,0,0,.59.1,1.76,1.76,0,0,0,1.77-1.76V33.83a1.76,1.76,0,0,0-1.13-1.65c-11.36-4.44-21.93-4.43-32.29,0Z"/><path d="M69.23,32.21a1.74,1.74,0,0,0-1.06,1.62V49.34a1.75,1.75,0,0,0,2.54,1.58c8.31-4.08,18-4.05,29.58.08a2,2,0,0,0,.59.1,1.76,1.76,0,0,0,1.77-1.76V33.83a1.76,1.76,0,0,0-1.13-1.65c-11.36-4.44-21.93-4.43-32.29,0Zm29.89,2.84V46.88a49.57,49.57,0,0,0-15-2.54A33.72,33.72,0,0,0,71.7,46.63V35c8.89-3.55,17.65-3.54,27.42,0Zm0,0"/></g></svg>