<svg id="Layer_1" data-name="Layer 1" xmlns="http://www.w3.org/2000/svg" viewBox="0 0 118 118"><defs><style>.cls-1{fill:#50e9b6;}</style></defs><title>cat</title><g id="cat_pawprints" data-name="cat pawprints"><path class="cls-1" d="M76.26,77a14.78,14.78,0,0,0-3.5,10.71,14,14,0,0,0,6,10.67,14.2,14.2,0,0,0,9.7,2.58,14.8,14.8,0,0,0,13.36-15.85,15,15,0,0,0-5.15-9.85,14.33,14.33,0,0,0-10.57-3.4A14.94,14.94,0,0,0,76.26,77Zm-.18,10.39"/><path class="cls-1" d="M98.23,64.44a6.82,6.82,0,0,0-1.56,5.08,7.08,7.08,0,0,0,2.47,4.64l.41.3a7.1,7.1,0,0,0,4.53,1.16,6.77,6.77,0,0,0,6.33-7.45A7.07,7.07,0,0,0,108,63.53,6.87,6.87,0,0,0,102.87,62a7,7,0,0,0-4.64,2.47Zm1.53,4.8"/><path class="cls-1" d="M82.79,57.16a6.81,6.81,0,0,0-1.55,5.08,7.08,7.08,0,0,0,2.91,5.17,8,8,0,0,0,4.67,1.26,7.08,7.08,0,0,0,4.65-2.47A6.83,6.83,0,0,0,95,61.13a7,7,0,0,0-7.58-6.44,7.08,7.08,0,0,0-4.65,2.47Zm1.81,5"/><path class="cls-1" d="M67.44,62.51a6.82,6.82,0,0,0-1.56,5.08,7.08,7.08,0,0,0,2.47,4.64l.41.29a7.5,7.5,0,0,0,4.66,1.27,7.08,7.08,0,0,0,4.65-2.47,6.81,6.81,0,0,0,1.55-5.08,7.11,7.11,0,0,0-2.46-4.64A6.86,6.86,0,0,0,72.08,60a7,7,0,0,0-4.64,2.47Zm1.62,4.66"/><path class="cls-1" d="M59.2,77.26a6.82,6.82,0,0,0-1.56,5.08A7.06,7.06,0,0,0,60.11,87l.41.29a7.53,7.53,0,0,0,4.67,1.27,6.77,6.77,0,0,0,6.33-7.45,7.09,7.09,0,0,0-2.46-4.64,8.37,8.37,0,0,0-5.22-1.65,7,7,0,0,0-4.64,2.46ZM61,82"/><path class="cls-1" d="M32.58,34.26a14.48,14.48,0,0,0-9.76,18.27,14,14,0,0,0,8,9.25,14.27,14.27,0,0,0,10,.59,14.65,14.65,0,1,0-8.29-28.11ZM25.85,51.48"/><path class="cls-1" d="M42.72,24.24a6.84,6.84,0,0,0-.51,5.29A7.09,7.09,0,0,0,46.1,34a5.5,5.5,0,0,0,4.74.08,7,7,0,0,0,4.06-3.34,6.84,6.84,0,0,0,.51-5.29,7.12,7.12,0,0,0-3.35-4.06,6.82,6.82,0,0,0-5.28-.5,7,7,0,0,0-4.06,3.34Zm2.54,4.62"/><path class="cls-1" d="M26.31,20.64a6.87,6.87,0,0,0-.51,5.28A7.06,7.06,0,0,0,29.15,30a.62.62,0,0,1,.39.36,7.53,7.53,0,0,0,4.83.3,7.06,7.06,0,0,0,4.05-3.34A6.8,6.8,0,0,0,38.93,22a6.77,6.77,0,0,0-8.56-4.72,7.09,7.09,0,0,0-4.06,3.35ZM29,25"/><path class="cls-1" d="M12.25,28.73A6.82,6.82,0,0,0,11.74,34a7.06,7.06,0,0,0,3.35,4.06l.46.21a7.57,7.57,0,0,0,4.82.3A6.76,6.76,0,0,0,25.09,30,7,7,0,0,0,21.75,26a8.41,8.41,0,0,0-5.44-.58,7.06,7.06,0,0,0-4.06,3.35ZM14.93,33"/><path class="cls-1" d="M7.37,45.12a6.78,6.78,0,0,0-.51,5.28,7,7,0,0,0,3.34,4.06l.46.2a7.54,7.54,0,0,0,4.83.31,7.12,7.12,0,0,0,4.06-3.35,6.82,6.82,0,0,0,.5-5.28,7,7,0,0,0-3.34-4.06,6.23,6.23,0,0,0-5.29-.51,7.07,7.07,0,0,0-4,3.35Zm2.52,4.24"/><path d="M76.26,77a14.78,14.78,0,0,0-3.5,10.71,14,14,0,0,0,6,10.67,14.2,14.2,0,0,0,9.7,2.58,14.8,14.8,0,0,0,13.36-15.85,15,15,0,0,0-5.15-9.85,14.33,14.33,0,0,0-10.57-3.4A14.94,14.94,0,0,0,76.26,77Zm-.18,10.39a11.84,11.84,0,0,1,2.39-8,10.81,10.81,0,0,1,7.63-4,11.28,11.28,0,0,1,7.44,2l.82.59a10.81,10.81,0,0,1,4,7.62,11.2,11.2,0,0,1-22.33,1.83Zm0,0"/><path d="M98.23,64.44a6.82,6.82,0,0,0-1.56,5.08,7.08,7.08,0,0,0,2.47,4.64l.41.3a7.1,7.1,0,0,0,4.53,1.16,6.77,6.77,0,0,0,6.33-7.45A7.07,7.07,0,0,0,108,63.53,6.87,6.87,0,0,0,102.87,62a7,7,0,0,0-4.64,2.47Zm1.53,4.8a4,4,0,0,1,.87-2.67,3.52,3.52,0,0,1,2.42-1.37,3.92,3.92,0,0,1,2.4.68l.27.19a3.5,3.5,0,0,1,1.37,2.42,4.08,4.08,0,0,1-3.29,4.05,4,4,0,0,1-2.67-.88,3.5,3.5,0,0,1-1.37-2.42Zm0,0"/><path d="M82.79,57.16a6.81,6.81,0,0,0-1.55,5.08,7.08,7.08,0,0,0,2.91,5.17,8,8,0,0,0,4.67,1.26,7.08,7.08,0,0,0,4.65-2.47A6.83,6.83,0,0,0,95,61.13a7,7,0,0,0-7.58-6.44,7.08,7.08,0,0,0-4.65,2.47Zm1.81,5a4,4,0,0,1,.87-2.68,3.59,3.59,0,0,1,2.42-1.37,4,4,0,0,1,2.4.68,3.5,3.5,0,0,1,1.41,2.65A3.27,3.27,0,0,1,90.92,64a3.57,3.57,0,0,1-2.41,1.37,3.49,3.49,0,0,1-3.91-3.19Zm0,0"/><path d="M67.44,62.51a6.82,6.82,0,0,0-1.56,5.08,7.08,7.08,0,0,0,2.47,4.64l.41.29a7.5,7.5,0,0,0,4.66,1.27,7.08,7.08,0,0,0,4.65-2.47,6.81,6.81,0,0,0,1.55-5.08,7.11,7.11,0,0,0-2.46-4.64A6.86,6.86,0,0,0,72.08,60a7,7,0,0,0-4.64,2.47Zm1.62,4.66a4.6,4.6,0,0,1,.88-2.67,3.57,3.57,0,0,1,2.42-1.37,4,4,0,0,1,2.4.68L75,64a3.59,3.59,0,0,1,1.37,2.42,4,4,0,0,1-.87,2.68,3.61,3.61,0,0,1-2.42,1.37,3.93,3.93,0,0,1-2.68-.88,3.57,3.57,0,0,1-1.37-2.42Zm0,0"/><path d="M59.2,77.26a6.82,6.82,0,0,0-1.56,5.08A7.06,7.06,0,0,0,60.11,87l.41.29a7.53,7.53,0,0,0,4.67,1.27,6.77,6.77,0,0,0,6.33-7.45,7.09,7.09,0,0,0-2.46-4.64,8.37,8.37,0,0,0-5.22-1.65,7,7,0,0,0-4.64,2.46ZM61,82a4.1,4.1,0,0,1,.78-2.54,3.57,3.57,0,0,1,2.42-1.37,3.92,3.92,0,0,1,2.67.88,3.57,3.57,0,0,1,1.37,2.42A3.5,3.5,0,0,1,65,85.32a3.93,3.93,0,0,1-2.68-.88A3.57,3.57,0,0,1,61,82Zm0,0"/><path d="M32.58,34.26a14.48,14.48,0,0,0-9.76,18.27,14,14,0,0,0,8,9.25,14.27,14.27,0,0,0,10,.59,14.65,14.65,0,1,0-8.29-28.11ZM25.85,51.48A11.17,11.17,0,0,1,33.49,37.6a10.75,10.75,0,0,1,7.69.47,11,11,0,0,1,6.19,7.16,11.2,11.2,0,0,1-21.52,6.25Zm0,0"/><path d="M42.72,24.24a6.84,6.84,0,0,0-.51,5.29A7.09,7.09,0,0,0,46.1,34a5.5,5.5,0,0,0,4.74.08,7,7,0,0,0,4.06-3.34,6.84,6.84,0,0,0,.51-5.29,7.12,7.12,0,0,0-3.35-4.06,6.82,6.82,0,0,0-5.28-.5,7,7,0,0,0-4.06,3.34Zm2.54,4.62a4,4,0,0,1,.33-2.8,3.54,3.54,0,0,1,2.09-1.82,4,4,0,0,1,2.49.18l.31.14a3.56,3.56,0,0,1,1.82,2.1,2.52,2.52,0,0,1-.47,2.73,3.56,3.56,0,0,1-2.1,1.82,3.51,3.51,0,0,1-4.47-2.35Zm0,0"/><path d="M26.31,20.64a6.87,6.87,0,0,0-.51,5.28A7.06,7.06,0,0,0,29.15,30a.62.62,0,0,1,.39.36,7.53,7.53,0,0,0,4.83.3,7.06,7.06,0,0,0,4.05-3.34A6.8,6.8,0,0,0,38.93,22a6.77,6.77,0,0,0-8.56-4.72,7.09,7.09,0,0,0-4.06,3.35ZM29,25a4,4,0,0,1,.33-2.8,3.53,3.53,0,0,1,6.56.53,3.94,3.94,0,0,1-.32,2.79,4.26,4.26,0,0,1-2,1.9,4,4,0,0,1-2.79-.32A3.61,3.61,0,0,1,29,25Zm0,0"/><path d="M12.25,28.73A6.82,6.82,0,0,0,11.74,34a7.06,7.06,0,0,0,3.35,4.06l.46.21a7.57,7.57,0,0,0,4.82.3A6.76,6.76,0,0,0,25.09,30,7,7,0,0,0,21.75,26a8.41,8.41,0,0,0-5.44-.58,7.06,7.06,0,0,0-4.06,3.35ZM14.93,33a3.33,3.33,0,0,1,.25-2.64,3.58,3.58,0,0,1,2.1-1.83,4,4,0,0,1,2.8.32A3.56,3.56,0,0,1,21.9,31a3.5,3.5,0,0,1-2.35,4.47,3.94,3.94,0,0,1-2.79-.32A3.54,3.54,0,0,1,14.93,33Zm0,0"/><path d="M7.37,45.12a6.78,6.78,0,0,0-.51,5.28,7,7,0,0,0,3.34,4.06l.46.2a7.54,7.54,0,0,0,4.83.31,7.12,7.12,0,0,0,4.06-3.35,6.82,6.82,0,0,0,.5-5.28,7,7,0,0,0-3.34-4.06,6.23,6.23,0,0,0-5.29-.51,7.07,7.07,0,0,0-4,3.35Zm2.52,4.24a3.26,3.26,0,0,1,.32-2.79,3.54,3.54,0,0,1,2.1-1.83,4,4,0,0,1,2.49.18l.31.14a3.56,3.56,0,0,1,1.82,2.1A3.89,3.89,0,0,1,16.61,50a3.55,3.55,0,0,1-2.09,1.83,4,4,0,0,1-2.8-.32,3.58,3.58,0,0,1-1.83-2.1Zm0,0"/></g></svg>