<svg id="Layer_1" data-name="Layer 1" xmlns="http://www.w3.org/2000/svg" viewBox="0 0 118 118"><defs><style>.cls-1{fill:#fff;}.cls-2{fill:#fffaa3;}.cls-3{fill:#50e9b6;}.cls-4{fill:#000002;}</style></defs><title>city</title><g id="city"><rect class="cls-1" x="21.22" y="45.24" width="36" height="58"/><rect class="cls-1" x="45.22" y="11.24" width="49" height="92"/><path class="cls-2" d="M20.78,107h37.6V44.8H20.78ZM41,50.18a1.45,1.45,0,0,1,1.45-1.45H53.92a1.45,1.45,0,0,1,1.44,1.45v6.7a1.44,1.44,0,0,1-1.44,1.44H42.48A1.44,1.44,0,0,1,41,56.88Zm0,13.08a1.45,1.45,0,0,1,1.45-1.44H53.92a1.45,1.45,0,0,1,1.44,1.44V70a1.45,1.45,0,0,1-1.44,1.45H42.48A1.45,1.45,0,0,1,41,70Zm0,13.09a1.45,1.45,0,0,1,1.45-1.45H53.92a1.45,1.45,0,0,1,1.44,1.45V83a1.45,1.45,0,0,1-1.44,1.45H42.48A1.45,1.45,0,0,1,41,83Zm0,13.08A1.45,1.45,0,0,1,42.48,88H53.92a1.45,1.45,0,0,1,1.44,1.45v6.7a1.45,1.45,0,0,1-1.44,1.44H42.48A1.45,1.45,0,0,1,41,96.13ZM23.8,50.18a1.45,1.45,0,0,1,1.45-1.45H36.69a1.44,1.44,0,0,1,1.44,1.45v6.7a1.43,1.43,0,0,1-1.44,1.44H25.25a1.44,1.44,0,0,1-1.45-1.44Zm0,13.08a1.45,1.45,0,0,1,1.45-1.44H36.69a1.44,1.44,0,0,1,1.44,1.44V70a1.44,1.44,0,0,1-1.44,1.45H25.25A1.45,1.45,0,0,1,23.8,70Zm0,13.09a1.45,1.45,0,0,1,1.45-1.45H36.69a1.44,1.44,0,0,1,1.44,1.45V83a1.44,1.44,0,0,1-1.44,1.45H25.25A1.45,1.45,0,0,1,23.8,83Zm0,13.08A1.45,1.45,0,0,1,25.25,88H36.69a1.44,1.44,0,0,1,1.44,1.45v6.7a1.44,1.44,0,0,1-1.44,1.44H25.25a1.45,1.45,0,0,1-1.45-1.44Z"/><path class="cls-3" d="M42.42,11V41.91H59.83a1.43,1.43,0,0,1,1.44,1.44V107l34.95.07V11ZM57.37,37.74a1.44,1.44,0,0,1-1.44,1.45H50.4A1.45,1.45,0,0,1,49,37.74v-6a1.44,1.44,0,0,1,1.45-1.44h5.53a1.43,1.43,0,0,1,1.44,1.44Zm0-14.41a1.44,1.44,0,0,1-1.44,1.45H50.4A1.45,1.45,0,0,1,49,23.33v-6a1.44,1.44,0,0,1,1.45-1.44h5.53a1.43,1.43,0,0,1,1.44,1.44Zm16,72.05a1.45,1.45,0,0,1-1.45,1.45H66.35a1.45,1.45,0,0,1-1.45-1.45v-6a1.44,1.44,0,0,1,1.45-1.44h5.53a1.44,1.44,0,0,1,1.45,1.44Zm0-14.41a1.45,1.45,0,0,1-1.45,1.45H66.35A1.45,1.45,0,0,1,64.9,81V75a1.44,1.44,0,0,1,1.45-1.44h5.53A1.44,1.44,0,0,1,73.33,75Zm0-14.41A1.45,1.45,0,0,1,71.88,68H66.35a1.45,1.45,0,0,1-1.45-1.45v-6a1.44,1.44,0,0,1,1.45-1.44h5.53a1.44,1.44,0,0,1,1.45,1.44Zm0-14.41a1.45,1.45,0,0,1-1.45,1.45H66.35a1.45,1.45,0,0,1-1.45-1.45v-6a1.44,1.44,0,0,1,1.45-1.44h5.53a1.44,1.44,0,0,1,1.45,1.44Zm0-14.41a1.45,1.45,0,0,1-1.45,1.45H66.35a1.45,1.45,0,0,1-1.45-1.45v-6a1.44,1.44,0,0,1,1.45-1.44h5.53a1.44,1.44,0,0,1,1.45,1.44Zm0-14.41a1.45,1.45,0,0,1-1.45,1.45H66.35a1.45,1.45,0,0,1-1.45-1.45v-6a1.44,1.44,0,0,1,1.45-1.44h5.53a1.44,1.44,0,0,1,1.45,1.44Zm16,72.05a1.45,1.45,0,0,1-1.44,1.45H82.3a1.44,1.44,0,0,1-1.44-1.45v-6a1.43,1.43,0,0,1,1.44-1.44h5.54a1.44,1.44,0,0,1,1.44,1.44Zm0-14.41a1.45,1.45,0,0,1-1.44,1.45H82.3A1.44,1.44,0,0,1,80.86,81V75a1.43,1.43,0,0,1,1.44-1.44h5.54A1.44,1.44,0,0,1,89.28,75Zm0-14.41A1.45,1.45,0,0,1,87.84,68H82.3a1.44,1.44,0,0,1-1.44-1.45v-6a1.43,1.43,0,0,1,1.44-1.44h5.54a1.44,1.44,0,0,1,1.44,1.44Zm0-14.41a1.45,1.45,0,0,1-1.44,1.45H82.3a1.44,1.44,0,0,1-1.44-1.45v-6A1.43,1.43,0,0,1,82.3,44.7h5.54a1.44,1.44,0,0,1,1.44,1.44Zm0-14.41a1.45,1.45,0,0,1-1.44,1.45H82.3a1.44,1.44,0,0,1-1.44-1.45v-6a1.43,1.43,0,0,1,1.44-1.44h5.54a1.44,1.44,0,0,1,1.44,1.44Zm0-14.41a1.45,1.45,0,0,1-1.44,1.45H82.3a1.44,1.44,0,0,1-1.44-1.45v-6a1.43,1.43,0,0,1,1.44-1.44h5.54a1.44,1.44,0,0,1,1.44,1.44Z"/><path class="cls-4" d="M97.67,109.93h0l-37.84-.07H19.33a1.45,1.45,0,0,1-1.44-1.45V43.35a1.44,1.44,0,0,1,1.44-1.44h20.2V9.57A1.45,1.45,0,0,1,41,8.12H97.66a1.45,1.45,0,0,1,1.45,1.45v98.92a1.45,1.45,0,0,1-.42,1,1.46,1.46,0,0,1-1,.42Zm-36.4-3,34.95.07V11H42.42V41.91H59.83a1.43,1.43,0,0,1,1.44,1.44Zm-40.49,0h37.6V44.8H20.78Zm33.14-9.4H42.48A1.45,1.45,0,0,1,41,96.13v-6.7A1.45,1.45,0,0,1,42.48,88H53.92a1.45,1.45,0,0,1,1.44,1.45v6.7a1.45,1.45,0,0,1-1.44,1.44Zm-10-2.89h8.55V90.87H43.92Zm-7.23,2.89H25.25a1.45,1.45,0,0,1-1.45-1.44v-6.7A1.45,1.45,0,0,1,25.25,88H36.69a1.44,1.44,0,0,1,1.44,1.45v6.7a1.44,1.44,0,0,1-1.44,1.44Zm-10-2.89h8.55V90.87H26.69Zm61.15,2.15H82.3a1.44,1.44,0,0,1-1.44-1.45v-6a1.43,1.43,0,0,1,1.44-1.44h5.54a1.44,1.44,0,0,1,1.44,1.44v6a1.45,1.45,0,0,1-1.44,1.45Zm-4.09-2.89h2.64V90.82H83.75ZM71.88,96.83H66.35a1.45,1.45,0,0,1-1.45-1.45v-6a1.44,1.44,0,0,1,1.45-1.44h5.53a1.44,1.44,0,0,1,1.45,1.44v6a1.45,1.45,0,0,1-1.45,1.45ZM67.8,93.94h2.63V90.82H67.8ZM53.92,84.49H42.48A1.45,1.45,0,0,1,41,83V76.35a1.45,1.45,0,0,1,1.45-1.45H53.92a1.45,1.45,0,0,1,1.44,1.45V83a1.45,1.45,0,0,1-1.44,1.45Zm-10-2.89h8.55V77.79H43.92Zm-7.23,2.89H25.25A1.45,1.45,0,0,1,23.8,83V76.35a1.45,1.45,0,0,1,1.45-1.45H36.69a1.44,1.44,0,0,1,1.44,1.45V83a1.44,1.44,0,0,1-1.44,1.45Zm-10-2.89h8.55V77.79H26.69Zm61.15.82H82.3A1.44,1.44,0,0,1,80.86,81V75a1.43,1.43,0,0,1,1.44-1.44h5.54A1.44,1.44,0,0,1,89.28,75v6a1.45,1.45,0,0,1-1.44,1.45Zm-4.09-2.89h2.64V76.41H83.75ZM71.88,82.42H66.35A1.45,1.45,0,0,1,64.9,81V75a1.44,1.44,0,0,1,1.45-1.44h5.53A1.44,1.44,0,0,1,73.33,75v6a1.45,1.45,0,0,1-1.45,1.45ZM67.8,79.53h2.63V76.41H67.8ZM53.92,71.41H42.48A1.45,1.45,0,0,1,41,70v-6.7a1.45,1.45,0,0,1,1.45-1.44H53.92a1.45,1.45,0,0,1,1.44,1.44V70a1.45,1.45,0,0,1-1.44,1.45Zm-10-2.9h8.55v-3.8H43.92Zm-7.23,2.9H25.25A1.45,1.45,0,0,1,23.8,70v-6.7a1.45,1.45,0,0,1,1.45-1.44H36.69a1.44,1.44,0,0,1,1.44,1.44V70a1.44,1.44,0,0,1-1.44,1.45Zm-10-2.9h8.55v-3.8H26.69ZM87.84,68H82.3a1.44,1.44,0,0,1-1.44-1.45v-6a1.43,1.43,0,0,1,1.44-1.44h5.54a1.44,1.44,0,0,1,1.44,1.44v6A1.45,1.45,0,0,1,87.84,68Zm-4.09-2.89h2.64V62H83.75ZM71.88,68H66.35a1.45,1.45,0,0,1-1.45-1.45v-6a1.44,1.44,0,0,1,1.45-1.44h5.53a1.44,1.44,0,0,1,1.45,1.44v6A1.45,1.45,0,0,1,71.88,68ZM67.8,65.12h2.63V62H67.8Zm-13.88-6.8H42.48A1.44,1.44,0,0,1,41,56.88v-6.7a1.45,1.45,0,0,1,1.45-1.45H53.92a1.45,1.45,0,0,1,1.44,1.45v6.7a1.44,1.44,0,0,1-1.44,1.44Zm-10-2.89h8.55v-3.8H43.92Zm-7.23,2.89H25.25a1.44,1.44,0,0,1-1.45-1.44v-6.7a1.45,1.45,0,0,1,1.45-1.45H36.69a1.44,1.44,0,0,1,1.44,1.45v6.7a1.43,1.43,0,0,1-1.44,1.44Zm-10-2.89h8.55v-3.8H26.69ZM87.84,53.6H82.3a1.44,1.44,0,0,1-1.44-1.45v-6A1.43,1.43,0,0,1,82.3,44.7h5.54a1.44,1.44,0,0,1,1.44,1.44v6a1.45,1.45,0,0,1-1.44,1.45Zm-4.09-2.89h2.64V47.59H83.75ZM71.88,53.6H66.35a1.45,1.45,0,0,1-1.45-1.45v-6a1.44,1.44,0,0,1,1.45-1.44h5.53a1.44,1.44,0,0,1,1.45,1.44v6a1.45,1.45,0,0,1-1.45,1.45ZM67.8,50.71h2.63V47.59H67.8Zm20-11.52H82.3a1.44,1.44,0,0,1-1.44-1.45v-6a1.43,1.43,0,0,1,1.44-1.44h5.54a1.44,1.44,0,0,1,1.44,1.44v6a1.45,1.45,0,0,1-1.44,1.45ZM83.75,36.3h2.64V33.18H83.75ZM71.88,39.19H66.35a1.45,1.45,0,0,1-1.45-1.45v-6a1.44,1.44,0,0,1,1.45-1.44h5.53a1.44,1.44,0,0,1,1.45,1.44v6a1.45,1.45,0,0,1-1.45,1.45ZM67.8,36.3h2.63V33.18H67.8ZM55.93,39.19H50.4A1.45,1.45,0,0,1,49,37.74v-6a1.44,1.44,0,0,1,1.45-1.44h5.53a1.43,1.43,0,0,1,1.44,1.44v6a1.44,1.44,0,0,1-1.44,1.45ZM51.84,36.3h2.64V33.18H51.84Zm36-11.52H82.3a1.44,1.44,0,0,1-1.44-1.45v-6a1.43,1.43,0,0,1,1.44-1.44h5.54a1.44,1.44,0,0,1,1.44,1.44v6a1.45,1.45,0,0,1-1.44,1.45Zm-4.09-2.89h2.64V18.77H83.75ZM71.88,24.78H66.35a1.45,1.45,0,0,1-1.45-1.45v-6a1.44,1.44,0,0,1,1.45-1.44h5.53a1.44,1.44,0,0,1,1.45,1.44v6a1.45,1.45,0,0,1-1.45,1.45ZM67.8,21.89h2.63V18.77H67.8ZM55.93,24.78H50.4A1.45,1.45,0,0,1,49,23.33v-6a1.44,1.44,0,0,1,1.45-1.44h5.53a1.43,1.43,0,0,1,1.44,1.44v6a1.44,1.44,0,0,1-1.44,1.45Zm-4.09-2.89h2.64V18.77H51.84Zm0,0"/></g></svg>