<svg id="Layer_1" data-name="Layer 1" xmlns="http://www.w3.org/2000/svg" xmlns:xlink="http://www.w3.org/1999/xlink" viewBox="0 0 118 118"><defs><style>.cls-1{fill:none;}.cls-2{clip-path:url(#clip-path);}.cls-3{fill:#50e9b6;}</style><clipPath id="clip-path"><rect class="cls-1" x="11.64" y="12.32" width="93.71" height="93.41"/></clipPath></defs><title>coffee</title><g id="coffee"><g class="cls-2"><path class="cls-3" d="M13.28,47.86a68.89,68.89,0,0,0-1.52,14.48,67.38,67.38,0,0,0,4.41,24.17A51.8,51.8,0,0,0,28,104.87a1.37,1.37,0,0,0,1,.41H74.13a1.41,1.41,0,0,0,1-.41,48,48,0,0,0,7.63-9.73c7.43-.25,14.88-5.15,19.12-12.63a25.39,25.39,0,0,0,3.2-16.32,17.67,17.67,0,0,0-8.6-13.06,16.54,16.54,0,0,0-6-2c-.18-1.11-.39-2.21-.62-3.29a1.43,1.43,0,0,0-1.4-1.14H14.68a1.42,1.42,0,0,0-1.4,1.14ZM88,83.61a68,68,0,0,0,3.37-21.27c0-.33,0-.66,0-1,.11.06.23.11.34.18a8.23,8.23,0,0,1,3.83,6.15,15.77,15.77,0,0,1-2.07,10.08A16.82,16.82,0,0,1,88,83.61ZM61.7,66.48"/><path d="M13.28,47.86a68.89,68.89,0,0,0-1.52,14.48,67.38,67.38,0,0,0,4.41,24.17A51.8,51.8,0,0,0,28,104.87a1.37,1.37,0,0,0,1,.41H74.13a1.41,1.41,0,0,0,1-.41,48,48,0,0,0,7.63-9.73c7.43-.25,14.88-5.15,19.12-12.63a25.39,25.39,0,0,0,3.2-16.32,17.67,17.67,0,0,0-8.6-13.06,16.54,16.54,0,0,0-6-2c-.18-1.11-.39-2.21-.62-3.29a1.43,1.43,0,0,0-1.4-1.14H14.68a1.42,1.42,0,0,0-1.4,1.14ZM88,83.61a68,68,0,0,0,3.37-21.27c0-.33,0-.66,0-1,.11.06.23.11.34.18a8.23,8.23,0,0,1,3.83,6.15,15.77,15.77,0,0,1-2.07,10.08A16.82,16.82,0,0,1,88,83.61Zm11.35-2.52c-3.4,6-9.08,10.14-14.92,11,.76-1.47,1.47-3,2.11-4.56a19.54,19.54,0,0,0,11.83-20.3A11,11,0,0,0,93.14,59a9,9,0,0,0-1.88-.81c-.08-1.37-.2-2.74-.36-4.09a13.46,13.46,0,0,1,4.16,1.5,14.86,14.86,0,0,1,7.18,11,22.45,22.45,0,0,1-2.87,14.46ZM29.61,102.41c-9.39-9.4-15-24.33-15-40.07A66.46,66.46,0,0,1,15.85,49.6H87.29a66.46,66.46,0,0,1,1.22,12.74c0,15.74-5.58,30.67-15,40.07ZM61.7,66.48"/></g><path d="M65,41.33a10.46,10.46,0,0,0-1.23-5.17,7.72,7.72,0,0,1-1-3.93,7.72,7.72,0,0,1,1-3.93A10.46,10.46,0,0,0,65,23.13,10.46,10.46,0,0,0,63.74,18a7.75,7.75,0,0,1-1-3.93,1.44,1.44,0,1,0-2.87,0,10.46,10.46,0,0,0,1.23,5.17,7.72,7.72,0,0,1,1,3.93,7.72,7.72,0,0,1-1,3.93,10.46,10.46,0,0,0-1.23,5.17,10.46,10.46,0,0,0,1.23,5.17,7.75,7.75,0,0,1,1,3.93,1.44,1.44,0,1,0,2.87,0Zm0,0"/><path d="M54.1,41.33a10.46,10.46,0,0,0-1.23-5.17,7.72,7.72,0,0,1-.95-3.93,7.72,7.72,0,0,1,.95-3.93,10.46,10.46,0,0,0,1.23-5.17A10.46,10.46,0,0,0,52.87,18,7.75,7.75,0,0,1,51.92,14,1.44,1.44,0,1,0,49,14a10.44,10.44,0,0,0,1.24,5.17,7.72,7.72,0,0,1,.95,3.93,7.72,7.72,0,0,1-.95,3.93A10.44,10.44,0,0,0,49,32.23a10.44,10.44,0,0,0,1.24,5.17,7.75,7.75,0,0,1,.95,3.93,1.44,1.44,0,1,0,2.87,0Zm0,0"/><path d="M43.23,41.33A10.46,10.46,0,0,0,42,36.16a7.72,7.72,0,0,1-1-3.93,7.72,7.72,0,0,1,1-3.93,10.46,10.46,0,0,0,1.23-5.17A10.46,10.46,0,0,0,42,18a7.75,7.75,0,0,1-1-3.93,1.44,1.44,0,1,0-2.88,0,10.44,10.44,0,0,0,1.24,5.17,7.72,7.72,0,0,1,1,3.93,7.72,7.72,0,0,1-1,3.93,10.44,10.44,0,0,0-1.24,5.17,10.44,10.44,0,0,0,1.24,5.17,7.75,7.75,0,0,1,1,3.93,1.44,1.44,0,1,0,2.87,0Zm0,0"/></g></svg>