<svg id="Layer_1" data-name="Layer 1" xmlns="http://www.w3.org/2000/svg" viewBox="0 0 118 118"><defs><style>.cls-1{fill:#fffaa3;}.cls-2{fill:#50e9b6;}</style></defs><title>dog</title><g id="dog_bone" data-name="dog bone"><path class="cls-1" d="M32.09,48.33a1.67,1.67,0,0,0-2.18-.53,2,2,0,0,0-.34.22,9.67,9.67,0,1,1-2.15-17.15,1.68,1.68,0,0,0,2.24-1.51,9.59,9.59,0,0,1,4.2-7.59,9.67,9.67,0,0,1,10.94,16A1.69,1.69,0,0,0,44.37,40L63.81,69H62.16a107.88,107.88,0,0,1-16.77-1.25l-.18,0-.06-.16a1.52,1.52,0,0,0-.18-.36Z"/><path class="cls-2" d="M58.12,53.68c1.46,0,2.79-.07,4-.07,8.91,0,17.27,1,23.53,2.69,6.87,1.91,8.7,4.06,8.7,5,0,1.3-2.69,3.36-8.7,5A83.4,83.4,0,0,1,68,68.92h-.17L57.58,53.7Z"/><path class="cls-2" d="M34.19,57.84l.23-.1,6.22,9.14-.77-.19-1.24-.33c-6-1.67-8.7-3.73-8.7-5C29.93,60.54,31.05,59.21,34.19,57.84Z"/><path class="cls-2" d="M90,94.52a117.2,117.2,0,0,1-27.8,3.42c-10.86,0-21-1.17-28.68-3.28s-10.56-4.6-10.81-6.23v-.09l0-.08a2.09,2.09,0,0,0,.11-.3l6-22.38.36.27a25.63,25.63,0,0,0,8.52,3.76,95.81,95.81,0,0,0,24.44,2.82,95.67,95.67,0,0,0,24.43-2.82,25.57,25.57,0,0,0,8.54-3.76l.35-.27,6.73,24.83-.22.11A65.75,65.75,0,0,1,90,94.52Z"/><path d="M105.68,91.76a1.66,1.66,0,0,0,.09-1.12l-8-29.53c-.21-3.37-4-6.06-11.17-8-6.54-1.82-15.22-2.82-24.43-2.82-2.1,0-4.32.06-6.6.18h-.17L48,39.45l.19-.17a13.07,13.07,0,0,0,1.88-16.8A13.08,13.08,0,0,0,32,19a12.89,12.89,0,0,0-5.38,7.9l-.06.28-.28-.05A13,13,0,0,0,13.41,47.27a13,13,0,0,0,8.34,5.5A12.85,12.85,0,0,0,30,51.67l.23-.11,2.28,3.34-.32.15c-3.58,1.7-5.46,3.71-5.6,6l-7,26a1.7,1.7,0,0,0,0,.22l0,.1a1.7,1.7,0,0,0-.19.79c0,3.94,4.6,7.29,13.29,9.7,7.92,2.2,18.43,3.41,29.58,3.41a120.09,120.09,0,0,0,29.77-3.82,79.34,79.34,0,0,0,9.24-2.93C104.84,93.1,105.41,92.37,105.68,91.76ZM58.12,53.68c1.46,0,2.79-.07,4-.07,8.91,0,17.27,1,23.53,2.69,6.87,1.91,8.7,4.06,8.7,5,0,1.3-2.69,3.36-8.7,5A83.4,83.4,0,0,1,68,68.92h-.17L57.58,53.7Zm-26-5.35a1.67,1.67,0,0,0-2.18-.53,2,2,0,0,0-.34.22,9.67,9.67,0,1,1-2.15-17.15,1.68,1.68,0,0,0,2.24-1.51,9.59,9.59,0,0,1,4.2-7.59,9.67,9.67,0,0,1,10.94,16A1.69,1.69,0,0,0,44.37,40L63.81,69H62.16a107.88,107.88,0,0,1-16.77-1.25l-.18,0-.06-.16a1.52,1.52,0,0,0-.18-.36Zm2.1,9.51.23-.1,6.22,9.14-.77-.19-1.24-.33c-6-1.67-8.7-3.73-8.7-5C29.93,60.54,31.05,59.21,34.19,57.84ZM90,94.52a117.2,117.2,0,0,1-27.8,3.42c-10.86,0-21-1.17-28.68-3.28s-10.56-4.6-10.81-6.23v-.09l0-.08a2.09,2.09,0,0,0,.11-.3l6-22.38.36.27a25.63,25.63,0,0,0,8.52,3.76,95.81,95.81,0,0,0,24.44,2.82,95.67,95.67,0,0,0,24.43-2.82,25.57,25.57,0,0,0,8.54-3.76l.35-.27,6.73,24.83-.22.11A65.75,65.75,0,0,1,90,94.52Z"/></g></svg>