<svg id="Layer_1" data-name="Layer 1" xmlns="http://www.w3.org/2000/svg" viewBox="0 0 118 118"><defs><style>.cls-1{fill:#50e9b6;}.cls-2{fill:#fffaa3;}</style></defs><title>phone</title><g id="phone"><path class="cls-1" d="M78,10.17H39a8.15,8.15,0,0,0-8.14,8.14V99.75A8.16,8.16,0,0,0,39,107.89H78a8.16,8.16,0,0,0,8.15-8.14V18.31A8.15,8.15,0,0,0,78,10.17Zm4.89,78.17"/><rect class="cls-2" x="32.53" y="24.3" width="51" height="66"/><path d="M78,10.17H39a8.15,8.15,0,0,0-8.14,8.14V99.75A8.16,8.16,0,0,0,39,107.89H78a8.16,8.16,0,0,0,8.15-8.14V18.31A8.15,8.15,0,0,0,78,10.17Zm4.89,78.17H33.53V91.6h49.4v8.15A4.89,4.89,0,0,1,78,104.63H39a4.89,4.89,0,0,1-4.88-4.88V26.45H83.53V23.2H34.07V18.31A4.89,4.89,0,0,1,39,13.42H78a4.89,4.89,0,0,1,4.89,4.89Zm0,0"/><rect x="56.87" y="96.49" width="3.26" height="3.26"/><rect x="45.47" y="16.68" width="3.26" height="3.26"/><rect x="51.98" y="16.68" width="3.26" height="3.26"/><path d="M40.58,33h4.89V29.71H39a1.62,1.62,0,0,0-1.62,1.63v6.51h3.25Zm0,0"/></g></svg>