<svg id="Layer_1" data-name="Layer 1" xmlns="http://www.w3.org/2000/svg" viewBox="0 0 118 118"><defs><style>.cls-1{fill:#50e9b6;}.cls-2{fill:#fffaa3;}</style></defs><title>skis</title><g id="skis"><path class="cls-1" d="M50,110a.73.73,0,0,1-.73.73h-5.1a.73.73,0,0,1-.73-.73V89.63a.49.49,0,0,1,.48-.49h5.59a.49.49,0,0,1,.49.49Zm0-25.45a.48.48,0,0,1-.49.48H44a.48.48,0,0,1-.48-.48v-11a.49.49,0,0,1,.48-.48h5.59a.49.49,0,0,1,.49.48Zm0-16.09a.49.49,0,0,1-.49.48H44a.49.49,0,0,1-.48-.48V15.36c0-4.17,1.87-6.83,3-7.74a.51.51,0,0,1,.62,0c1.1.91,3,3.57,3,7.74Z"/><path d="M54.14,89.45a.48.48,0,0,1,.3-.45,2,2,0,0,0,0-3.81.48.48,0,0,1-.3-.45V15.36a15.37,15.37,0,0,0-2.43-8.57c-1.48-2.23-3.33-3.57-5-3.57s-3.47,1.34-4.95,3.57a15.34,15.34,0,0,0-2.43,8.57V84.74a.48.48,0,0,1-.31.45,2,2,0,0,0,0,3.81.48.48,0,0,1,.31.45V110a4.84,4.84,0,0,0,4.83,4.83h5.1A4.84,4.84,0,0,0,54.14,110ZM50,110a.73.73,0,0,1-.73.73h-5.1a.73.73,0,0,1-.73-.73V89.63a.49.49,0,0,1,.48-.49h5.59a.49.49,0,0,1,.49.49Zm0-25.45a.48.48,0,0,1-.49.48H44a.48.48,0,0,1-.48-.48v-11a.49.49,0,0,1,.48-.48h5.59a.49.49,0,0,1,.49.48Zm0-16.09a.49.49,0,0,1-.49.48H44a.49.49,0,0,1-.48-.48V15.36c0-4.17,1.87-6.83,3-7.74a.51.51,0,0,1,.62,0c1.1.91,3,3.57,3,7.74Z"/><path class="cls-1" d="M67,15.36c0-4.18,1.87-6.83,3-7.74a.51.51,0,0,1,.62,0c1.1.91,3,3.57,3,7.74V68.47A.49.49,0,0,1,73,69H67.44a.49.49,0,0,1-.48-.48Zm0,58.17a.49.49,0,0,1,.48-.48H73a.49.49,0,0,1,.49.48v11A.48.48,0,0,1,73,85H67.44a.48.48,0,0,1-.48-.48Zm0,16.1a.49.49,0,0,1,.48-.49H73a.49.49,0,0,1,.49.49V110a.74.74,0,0,1-.74.73H67.69A.73.73,0,0,1,67,110Z"/><path d="M67.69,114.84h5.09A4.84,4.84,0,0,0,77.62,110V89.45a.48.48,0,0,1,.3-.45,2,2,0,0,0,0-3.81.48.48,0,0,1-.3-.45V15.36a15.37,15.37,0,0,0-2.43-8.57c-1.48-2.23-3.33-3.57-5-3.57s-3.47,1.34-4.95,3.57a15.34,15.34,0,0,0-2.43,8.57V84.74a.48.48,0,0,1-.31.45,2,2,0,0,0,0,3.81.48.48,0,0,1,.31.45V110A4.84,4.84,0,0,0,67.69,114.84ZM67,15.36c0-4.18,1.87-6.83,3-7.74a.51.51,0,0,1,.62,0c1.1.91,3,3.57,3,7.74V68.47A.49.49,0,0,1,73,69H67.44a.49.49,0,0,1-.48-.48Zm0,58.17a.49.49,0,0,1,.48-.48H73a.49.49,0,0,1,.49.48v11A.48.48,0,0,1,73,85H67.44a.48.48,0,0,1-.48-.48Zm0,16.1a.49.49,0,0,1,.48-.49H73a.49.49,0,0,1,.49.49V110a.74.74,0,0,1-.74.73H67.69A.73.73,0,0,1,67,110Z"/><path class="cls-2" d="M95.75,11.88a1.63,1.63,0,0,1,1.63,1.63v19a.47.47,0,0,1-.48.48H94.61a.48.48,0,0,1-.49-.48v-19A1.63,1.63,0,0,1,95.75,11.88Z"/><path d="M95.75,110.27a2,2,0,0,0,2-2v-3.31a.49.49,0,0,1,.49-.49h1.37a2.05,2.05,0,1,0,0-4.1H98.29a.48.48,0,0,1-.49-.48V37.57a.49.49,0,0,1,.49-.49h1.14a2.05,2.05,0,0,0,2-2V13.51a5.73,5.73,0,1,0-11.45,0V35a2,2,0,0,0,2,2h1.15a.49.49,0,0,1,.49.49V99.85a.48.48,0,0,1-.49.48H91.85a2,2,0,1,0,0,4.1h1.37a.49.49,0,0,1,.49.49v3.31A2,2,0,0,0,95.75,110.27Zm0-98.39a1.63,1.63,0,0,1,1.63,1.63v19a.47.47,0,0,1-.48.48H94.61a.48.48,0,0,1-.49-.48v-19A1.63,1.63,0,0,1,95.75,11.88Z"/><path class="cls-2" d="M19.61,13.51a1.63,1.63,0,0,1,3.26,0v19a.47.47,0,0,1-.48.48H20.1a.48.48,0,0,1-.49-.48Z"/><path d="M21.24,110.27a2,2,0,0,0,2.05-2v-3.31a.49.49,0,0,1,.49-.49h1.37a2,2,0,0,0,0-4.1H23.78a.48.48,0,0,1-.49-.48V37.57a.49.49,0,0,1,.49-.49h1.14a2.05,2.05,0,0,0,2-2V13.51a5.73,5.73,0,1,0-11.45,0V35a2.05,2.05,0,0,0,2,2h1.15a.48.48,0,0,1,.48.49V99.85a.47.47,0,0,1-.48.48H17.33a2.05,2.05,0,0,0,0,4.1h1.38a.48.48,0,0,1,.48.49v3.31A2,2,0,0,0,21.24,110.27ZM19.61,13.51a1.63,1.63,0,0,1,3.26,0v19a.47.47,0,0,1-.48.48H20.1a.48.48,0,0,1-.49-.48Z"/></g></svg>