<svg id="Layer_1" data-name="Layer 1" xmlns="http://www.w3.org/2000/svg" viewBox="0 0 118 118"><defs><style>.cls-1{fill:#50e9b6;}</style></defs><title>snowflake</title><g id="snowflake"><path class="cls-1" d="M63.23,67.38l-.75,1.67-4,9.09-4-9.11-.74-1.65-2,.2L42,68.65,48,60.55l1-1.39-1.21-1.67L42,49.67l9.89,1.07,1.79.2.81-1.83,3.94-8.94,4,8.94.81,1.83,1.79-.2,9.89-1.07-5.73,7.82L68,59.16l1,1.39,5.92,8.1-9.72-1.07Zm0,0"/><path d="M111.75,57.49H101l3.25-5.62a1.53,1.53,0,0,0-.56-2.1,1.51,1.51,0,0,0-2.09.57l-4.13,7.15H89.22L97.58,43A1.53,1.53,0,0,0,97,40.92a1.51,1.51,0,0,0-2.1.57l-9.24,16H73l8.51-11.62L66.93,47.45,73.4,36.24H91.9a1.54,1.54,0,0,0,0-3.07H75.17l4.11-7.1h8.27a1.54,1.54,0,0,0,0-3.07H81l5.4-9.35a1.53,1.53,0,0,0-.57-2.09,1.51,1.51,0,0,0-2.09.57l-5.4,9.35-3.24-5.64a1.53,1.53,0,1,0-2.65,1.54l4.13,7.15-4.1,7.1L64.16,17.15a1.53,1.53,0,0,0-2.66,1.53l9.26,16L64.31,45.84,58.47,32.59,52.63,45.84,46.2,34.69l9.24-16a1.53,1.53,0,0,0-.57-2.08,1.49,1.49,0,0,0-2.08.55L44.42,31.63l-4.1-7.09,4.14-7.16a1.55,1.55,0,0,0-.57-2.11,1.5,1.5,0,0,0-2.07.57l-3.27,5.64-5.38-9.35a1.53,1.53,0,0,0-2.66,1.52L35.91,23H29.42a1.54,1.54,0,1,0,0,3.07h8.25l4.11,7.1H25.07a1.54,1.54,0,1,0,0,3.07H43.55L50,47.45,35.48,45.87,44,57.49H31.27L22,41.49A1.53,1.53,0,1,0,19.37,43l8.37,14.48H19.53l-4.14-7.15a1.53,1.53,0,1,0-2.65,1.53L16,57.49H5.2a1.53,1.53,0,0,0,0,3.06H16l-3.24,5.64a1.52,1.52,0,0,0,.55,2.1,1.43,1.43,0,0,0,.76.21,1.54,1.54,0,0,0,1.33-.77l4.15-7.18h8.21L19.38,75a1.54,1.54,0,0,0,.56,2.1A1.57,1.57,0,0,0,22,76.57l9.26-16H44.18L35.49,72.44l14.4-1.57L43.57,81.82H25.08a1.54,1.54,0,1,0,0,3.07h16.7L37.69,92H29.42a1.54,1.54,0,0,0,0,3.07h6.5l-5.39,9.34a1.54,1.54,0,0,0,.56,2.1,1.61,1.61,0,0,0,.76.19,1.55,1.55,0,0,0,1.34-.76l5.39-9.35,3.25,5.64a1.54,1.54,0,0,0,1.33.76,1.65,1.65,0,0,0,.77-.19,1.54,1.54,0,0,0,.56-2.09l-4.14-7.18,4.1-7.11,8.36,14.49a1.53,1.53,0,0,0,1.33.77,1.47,1.47,0,0,0,.76-.2,1.56,1.56,0,0,0,.57-2.11l-9.26-16,6.37-11,5.92,13.4,5.91-13.4,6.37,11-9.26,16a1.54,1.54,0,0,0,.58,2.09,1.47,1.47,0,0,0,.76.2,1.54,1.54,0,0,0,1.33-.77l8.36-14.47,4.1,7.09-4.13,7.16a1.53,1.53,0,0,0,.55,2.09,1.48,1.48,0,0,0,.78.21,1.56,1.56,0,0,0,1.33-.76l3.24-5.64,5.41,9.36a1.54,1.54,0,0,0,1.32.77,1.65,1.65,0,0,0,.77-.21,1.55,1.55,0,0,0,.57-2.1l-5.4-9.34h6.49a1.54,1.54,0,1,0,0-3.07H79.32l-4.11-7.1H92a1.53,1.53,0,0,0,0-3l-18.5,0L67.12,70.87l14.4,1.57-8.7-11.89H85.73l9.24,16a1.53,1.53,0,0,0,1.33.76,1.39,1.39,0,0,0,.76-.21,1.54,1.54,0,0,0,.57-2.1L89.24,60.55h8.22l4.13,7.17a1.59,1.59,0,0,0,1.35.78,1.68,1.68,0,0,0,.76-.21,1.56,1.56,0,0,0,.56-2.1L101,60.55h10.78A1.53,1.53,0,0,0,113.32,59a1.57,1.57,0,0,0-1.57-1.54ZM63.23,67.38l-.75,1.67-4,9.09-4-9.11-.74-1.65-2,.2L42,68.65,48,60.55l1-1.39-1.21-1.67L42,49.67l9.89,1.07,1.79.2.81-1.83,3.94-8.94,4,8.94.81,1.83,1.79-.2,9.89-1.07-5.73,7.82L68,59.16l1,1.39,5.92,8.1-9.72-1.07Zm0,0"/></g></svg>