<svg id="Layer_1" data-name="Layer 1" xmlns="http://www.w3.org/2000/svg" viewBox="0 0 118 118"><defs><style>.cls-1{fill:#fffaa3;}</style></defs><title>sun</title><g id="sun"><path class="cls-1" d="M58.55,88.83a29.64,29.64,0,0,1-20.47-8.14,2.09,2.09,0,0,0-.4-.6,2.2,2.2,0,0,0-.59-.4,29.79,29.79,0,1,1,21.46,9.14Zm0,0"/><path d="M112.41,57H91.62a6.5,6.5,0,0,0-1,.45,31.81,31.81,0,0,0-8-19.65L93.7,26.71a1.87,1.87,0,1,0-2.65-2.65L80,35.12A32.17,32.17,0,0,0,60.15,26.9a3,3,0,0,0,.27-.95V5.16s-.84-1.89-1.87-1.89a2,2,0,0,0-2,1.89V26a2.41,2.41,0,0,0,.36.95,32.35,32.35,0,0,0-19.47,7.84L26,23.4a1.87,1.87,0,0,0-2.65,2.65L34.73,37.39a32,32,0,0,0-8.31,19.94,3.08,3.08,0,0,0-1-.36H4.68a2,2,0,0,0-1.89,2,1.88,1.88,0,0,0,1.89,1.88H25.47a1.54,1.54,0,0,0,1-.27,31.85,31.85,0,0,0,8.22,19.84L24.05,91.06a1.87,1.87,0,1,0,2.65,2.65L37.28,83.12a32.29,32.29,0,0,0,19.66,8,4.12,4.12,0,0,0-.36.94v20.79s.93,1.89,2,1.89a1.87,1.87,0,0,0,1.87-1.89V92.1a1.43,1.43,0,0,0-.27-.94,32,32,0,0,0,19.94-8.32L91,93.71a1.84,1.84,0,0,0,2.64,0,1.83,1.83,0,0,0,0-2.65l-10.86-11a31.76,31.76,0,0,0,7.84-19.47,1.09,1.09,0,0,0,.94.18h20.79A1.74,1.74,0,0,0,114.2,59a1.81,1.81,0,0,0-1.79-1.89ZM58.55,87.38a28.17,28.17,0,0,1-19.47-7.75,1.75,1.75,0,0,0-.95-.95,28.33,28.33,0,1,1,20.42,8.7Zm0,0"/><path d="M39.93,48.07a1.83,1.83,0,0,0,1.13.37,2,2,0,0,0,1.52-.75c.09-.1.18-.19.18-.29.19-.28.48-.56.76-1a1.9,1.9,0,1,0-3.4-1.71c0,.1-.19.19-.28.38s-.19.28-.29.38a1.86,1.86,0,0,0,.38,2.65Zm0,0"/><path d="M45.41,73.58A19.56,19.56,0,0,1,38.89,59a20.09,20.09,0,0,1,.66-5.11A1.86,1.86,0,0,0,36,53,22.64,22.64,0,0,0,35.11,59,22.89,22.89,0,0,0,43,76.41a2.19,2.19,0,0,0,1.23.48,1.89,1.89,0,0,0,1.23-3.31Zm0,0"/></g></svg>