<svg id="Layer_1" data-name="Layer 1" xmlns="http://www.w3.org/2000/svg" viewBox="0 0 118 118"><defs><style>.cls-1{fill:#fff;}.cls-2{fill:#50e9b6;}</style></defs><title>tea</title><g id="tea"><rect class="cls-1" x="37.22" y="58.24" width="27" height="30"/><path class="cls-2" d="M101.2,49.69H29.76a66.46,66.46,0,0,0-1.22,12.74c0,15.74,5.59,30.67,15,40.07H87.45c9.38-9.4,15-24.33,15-40.07A66.46,66.46,0,0,0,101.2,49.69ZM55.36,80.94H44.58V66.57H55.36Z"/><path class="cls-2" d="M21.07,79.26a18.68,18.68,0,0,1-2.41-11.93,11,11,0,0,1,5.26-8.21,9.12,9.12,0,0,1,1.87-.81c.08-1.37.2-2.74.36-4.09A13.31,13.31,0,0,0,22,55.73a14.85,14.85,0,0,0-7.18,11,22.57,22.57,0,0,0,2.87,14.46c3.41,6,9.09,10.14,14.93,11-.77-1.47-1.47-3-2.12-4.56A18.6,18.6,0,0,1,21.07,79.26Z"/><path d="M103.78,48a1.45,1.45,0,0,0-1.41-1.14H28.59A1.43,1.43,0,0,0,27.19,48c-.24,1.09-.44,2.19-.62,3.29a16.54,16.54,0,0,0-6,2A17.7,17.7,0,0,0,12,66.28,25.46,25.46,0,0,0,15.18,82.6C19.42,90.08,26.87,95,34.3,95.23A48.26,48.26,0,0,0,41.92,105a1.45,1.45,0,0,0,1,.4H88a1.44,1.44,0,0,0,1-.4A51.91,51.91,0,0,0,100.88,86.6a67.17,67.17,0,0,0,4.42-24.17A68.89,68.89,0,0,0,103.78,48ZM29,83.7a16.88,16.88,0,0,1-5.45-5.85A15.78,15.78,0,0,1,21.5,67.77a8.23,8.23,0,0,1,3.83-6.15l.35-.18c0,.33,0,.66,0,1A68.33,68.33,0,0,0,29,83.7ZM17.68,81.18a22.57,22.57,0,0,1-2.87-14.46,14.85,14.85,0,0,1,7.18-11,13.31,13.31,0,0,1,4.16-1.51c-.16,1.35-.28,2.72-.36,4.09a9.12,9.12,0,0,0-1.87.81,11,11,0,0,0-5.26,8.21,19.54,19.54,0,0,0,11.83,20.3c.65,1.57,1.35,3.09,2.12,4.56-5.84-.87-11.52-5-14.93-11ZM87.45,102.5H43.52c-9.39-9.4-15-24.33-15-40.07a66.46,66.46,0,0,1,1.22-12.74H48.53v14H43.14a1.43,1.43,0,0,0-1.43,1.43V82.38a1.44,1.44,0,0,0,1.43,1.44H56.8a1.44,1.44,0,0,0,1.43-1.44V65.13A1.43,1.43,0,0,0,56.8,63.7H51.41v-14H101.2a66.46,66.46,0,0,1,1.22,12.74c0,15.74-5.59,30.67-15,40.07ZM55.36,66.57V80.94H44.58V66.57Zm0,0"/><path d="M52.08,41.42a1.44,1.44,0,1,0,2.87,0,7.7,7.7,0,0,1,1-3.92,10.64,10.64,0,0,0,1.23-5.18,10.57,10.57,0,0,0-1.23-5.17,7.71,7.71,0,0,1-1-3.93,7.71,7.71,0,0,1,1-3.93,10.57,10.57,0,0,0,1.23-5.17,1.44,1.44,0,0,0-2.88,0,7.73,7.73,0,0,1-.94,3.93,10.44,10.44,0,0,0-1.24,5.17,10.57,10.57,0,0,0,1.23,5.17,7.65,7.65,0,0,1,.95,3.93,7.62,7.62,0,0,1-.95,3.93,10.6,10.6,0,0,0-1.23,5.17Zm0,0"/><path d="M63,41.42a1.44,1.44,0,0,0,2.88,0,7.71,7.71,0,0,1,1-3.92A10.53,10.53,0,0,0,68,32.32a10.46,10.46,0,0,0-1.23-5.17,7.72,7.72,0,0,1-1-3.93,7.72,7.72,0,0,1,1-3.93A10.46,10.46,0,0,0,68,14.12a1.44,1.44,0,1,0-2.87,0,7.72,7.72,0,0,1-1,3.93A10.44,10.44,0,0,0,63,23.22a10.44,10.44,0,0,0,1.24,5.17,7.75,7.75,0,0,1,1,3.93,7.72,7.72,0,0,1-1,3.93A10.47,10.47,0,0,0,63,41.42Zm0,0"/><path d="M73.82,41.42a1.44,1.44,0,0,0,2.88,0,7.71,7.71,0,0,1,1-3.92,10.53,10.53,0,0,0,1.23-5.18,10.46,10.46,0,0,0-1.23-5.17,7.72,7.72,0,0,1-1-3.93,7.72,7.72,0,0,1,1-3.93,10.46,10.46,0,0,0,1.23-5.17,1.44,1.44,0,1,0-2.87,0,7.72,7.72,0,0,1-1,3.93,10.44,10.44,0,0,0-1.24,5.17,10.44,10.44,0,0,0,1.24,5.17,7.75,7.75,0,0,1,1,3.93,7.72,7.72,0,0,1-1,3.93,10.47,10.47,0,0,0-1.24,5.17Zm0,0"/></g></svg>