<svg id="Layer_1" data-name="Layer 1" xmlns="http://www.w3.org/2000/svg" viewBox="0 0 118 118"><defs><style>.cls-1{fill:#50e9b6;stroke:#000;stroke-linecap:round;stroke-linejoin:round;stroke-width:2.77px;}</style></defs><title>tree</title><path id="tree" class="cls-1" d="M63,83c5.94,5.72,23,8.62,32.54,6.32C86.45,85.55,70.12,68.12,68,63.07c7.7,2.18,14.93,4.21,21.62,1.34C79.07,57.52,67.4,42.6,64.65,39.06a35.33,35.33,0,0,0,14.42,2.77c-1.15-1.91-17.61-21-22-27.75-7.46,9.38-15.31,20.67-22.2,28.71,5,.38,10.91-1.72,15.89-4C46.05,50,34.48,59.63,26.44,66.52c7.47,1.14,13.7-1,21.05-3.26C43.31,74,32.76,84.12,21.47,90.82c9.76-.19,26.22-1.15,32.23-7.57.65,5.15.14,14.9.78,20a10.47,10.47,0,0,0,7.94-.23C62.42,98.23,63,87.81,63,83Z"/></svg>