<svg id="Layer_1" data-name="Layer 1" xmlns="http://www.w3.org/2000/svg" viewBox="0 0 118 118"><defs><style>.cls-1{fill:#fffaa3;}</style></defs><title>wine</title><g id="wine"><path class="cls-1" d="M82.27,39.67c-3.79,6.15-11.76,9.41-23.52,9.41H58c-11.76,0-19.72-3.08-23.52-9.41-2.35-3.8-2.9-8.32-2.71-12.67a32,32,0,0,1,13.57-2.71A32,32,0,0,1,58.93,27a36.14,36.14,0,0,0,14.84,2.9,34.79,34.79,0,0,0,11.4-1.63c0,4-.72,8.14-2.9,11.4Zm0,0"/><path d="M83.36,6.56a1.92,1.92,0,0,0-1.63-.91H35.23a1.9,1.9,0,0,0-1.62.91c-.37.9-10.68,21.53-2.36,35.1,4.34,7.05,12.85,10.67,25.33,11v56.08H45.18a1.81,1.81,0,0,0,0,3.62h26.6a1.81,1.81,0,0,0,0-3.62H60.38V52.7c12.49-.19,21-4,25.33-11C94,28.09,83.9,7.28,83.36,6.56Zm-47,2.53H80.1a57,57,0,0,1,4.53,15.38,31.61,31.61,0,0,1-11,1.81A32,32,0,0,1,60,23.57a36.14,36.14,0,0,0-14.84-2.9A33.86,33.86,0,0,0,32,23,75.3,75.3,0,0,1,36.32,9.09ZM82.27,39.67c-3.79,6.15-11.76,9.41-23.52,9.41H58c-11.76,0-19.72-3.08-23.52-9.41-2.35-3.8-2.9-8.32-2.71-12.67a32,32,0,0,1,13.57-2.71A32,32,0,0,1,58.93,27a36.14,36.14,0,0,0,14.84,2.9,34.79,34.79,0,0,0,11.4-1.63c0,4-.72,8.14-2.9,11.4Zm0,0"/></g></svg>