<svg id="Layer_1" data-name="Layer 1" xmlns="http://www.w3.org/2000/svg" viewBox="0 0 118 118"><defs><style>.cls-1{fill:#50e9b6;}</style></defs><title>yoga</title><g id="lotus"><path class="cls-1" d="M56.35,108.15A52.36,52.36,0,0,1,4.65,60l0-.27H4.9a51.87,51.87,0,0,1,35.27,14,51.9,51.9,0,0,1,16.43,34.2l0,.27Z"/><path class="cls-1" d="M112.09,59.68h.27l0,.27a52.34,52.34,0,0,1-51.69,48.2h-.27l0-.27a52.11,52.11,0,0,1,51.69-48.2Z"/><path class="cls-1" d="M87,42.22l.25-.11.09.25a51.82,51.82,0,0,1,3.06,18v.16l-.15.07a55.95,55.95,0,0,0-31.55,36.1l-.24.86-.24-.86a52.51,52.51,0,0,0-1.87-5.51v-.09c0-.43,0-.9,0-1.4A52.09,52.09,0,0,1,87,42.22Z"/><path class="cls-1" d="M43.85,46.4A83.63,83.63,0,0,1,58.32,25.77l.18-.19.18.19A83.86,83.86,0,0,1,73.14,46.4l.09.18-.15.13c-1.39,1.14-2.73,2.36-4,3.61A55.18,55.18,0,0,0,58.72,64.7l-.22.44-.23-.44A54.89,54.89,0,0,0,47.89,50.32c-1.25-1.26-2.59-2.47-4-3.62l-.15-.12Z"/><path class="cls-1" d="M29.63,42.36l.09-.25.25.11A51.93,51.93,0,0,1,56.53,69.46l0,.09,0,.09a55.82,55.82,0,0,0-3.41,13.88l-.08.74-.38-.64A56.35,56.35,0,0,0,26.72,60.68l-.15-.07v-.16A51.54,51.54,0,0,1,29.63,42.36Z"/><path d="M27.06,39.07A55.28,55.28,0,0,0,23,58.87v.35l-.32-.12a55.51,55.51,0,0,0-20-3A1.8,1.8,0,0,0,1,58a55.76,55.76,0,0,0,55.63,53.75c.63,0,1.27,0,1.9,0s1.28,0,1.92,0A55.74,55.74,0,0,0,116,58a1.79,1.79,0,0,0-1.72-1.85,55.58,55.58,0,0,0-20,2.94l-.33.11v-.34a55.33,55.33,0,0,0-4.06-19.77,1.8,1.8,0,0,0-2.33-1,56.42,56.42,0,0,0-11.25,6.13l-.24.16L76,44.11A87.48,87.48,0,0,0,59.76,21.76a1.79,1.79,0,0,0-2.53,0A87.65,87.65,0,0,0,41,44.11l-.13.26-.24-.17a56.34,56.34,0,0,0-11.25-6.12,1.78,1.78,0,0,0-1.36,0A1.76,1.76,0,0,0,27.06,39.07Zm29.29,69.08A52.36,52.36,0,0,1,4.65,60l0-.27H4.9a51.87,51.87,0,0,1,35.27,14,51.9,51.9,0,0,1,16.43,34.2l0,.27Zm55.74-48.47h.27l0,.27a52.34,52.34,0,0,1-51.69,48.2h-.27l0-.27a52.11,52.11,0,0,1,51.69-48.2ZM87,42.22l.25-.11.09.25a51.82,51.82,0,0,1,3.06,18v.16l-.15.07a55.95,55.95,0,0,0-31.55,36.1l-.24.86-.24-.86a52.51,52.51,0,0,0-1.87-5.51v-.09c0-.43,0-.9,0-1.4A52.09,52.09,0,0,1,87,42.22ZM43.85,46.4A83.63,83.63,0,0,1,58.32,25.77l.18-.19.18.19A83.86,83.86,0,0,1,73.14,46.4l.09.18-.15.13c-1.39,1.14-2.73,2.36-4,3.61A55.18,55.18,0,0,0,58.72,64.7l-.22.44-.23-.44A54.89,54.89,0,0,0,47.89,50.32c-1.25-1.26-2.59-2.47-4-3.62l-.15-.12Zm-14.22-4,.09-.25.25.11A51.93,51.93,0,0,1,56.53,69.46l0,.09,0,.09a55.82,55.82,0,0,0-3.41,13.88l-.08.74-.38-.64A56.35,56.35,0,0,0,26.72,60.68l-.15-.07v-.16A51.54,51.54,0,0,1,29.63,42.36Z"/><path d="M3.89,45.85a2,2,0,1,1-2,2,2,2,0,0,1,2-2Z"/><path d="M28.72,23.22a2,2,0,1,1-2,2,2,2,0,0,1,2-2Z"/><path d="M58.5,6.33a2,2,0,1,1-2,2,2,2,0,0,1,2-2Z"/><path d="M88.28,23.22a2,2,0,1,1-2,2,2,2,0,0,1,2-2Z"/><path d="M113.1,45.85a2,2,0,1,1-2,2,2,2,0,0,1,2-2Z"/></g></svg>